<?xml version="1.0" encoding="UTF-8"?>
<diagram name="Golf Training App" xmlns="http://schemas.microsoft.com/visio/2003/core" xmlns:r="http://schemas.microsoft.com/office/visio/2012/relationships" xmlns:v="http://schemas.microsoft.com/visio/2003/core" xmlns:w="http://schemas.microsoft.com/office/word/2012/wordml" xmlns:a="http://schemas.microsoft.com/office/drawing/2012/main" xmlns:m="http://schemas.microsoft.com/office/visio/2012/main" xmlns:mx="http://schemas.microsoft.com/office/drawing/2012/matrix" xmlns:mv="http://schemas.microsoft.com/visio/2010/relationships">
  <sheet>
    <mxCell/>
    <mxGraphModel dx="882" dy="545" grid="1" gridSize="10" guides="1" tooltips="1" connect="1" arrows="1" fold="1" page="1" pageScale="1" pageWidth="827" pageHeight="1169" math="0" shadow="0">
      <root>
        <mxCell id="0"/>
        <mxCell id="1" parent="0"/>
        <mxCell id="fAaPQEQrYyolMn0Xslb7-17" value="" style="group" vertex="1" connectable="0">
          <mxGeometry x="240" y="80" width="440" height="360" as="geometry"/>
        </mxCell>
        <mxCell id="CL9a7TLkl-QwYfxJ-5D6-3" value="GolfApp" style="rounded=0;whiteSpace=wrap;html=1;" vertex="1" parent="1">
          <mxGeometry x="260" y="100" width="400" height="60" as="geometry"/>
        </mxCell>
        <mxCell id="CL9a7TLkl-QwYfxJ-5D6-4" value="exercises: List&lt;Exercise&gt;" style="shape=mxgraph.mockup.containers.informationAndMessaging.lists;whiteSpace=wrap;html=1;" vertex="1" parent="fAaPQEQrYyolMn0Xslb7-17">
          <mxGeometry x="260" y="160" width="400" height="40" as="geometry"/>
        </mxCell>
        <mxCell id="CL9a7TLkl-QwYfxJ-5D6-6" value="addExercise(exercise: Exercise): void" style="shape=mxgraph.mockup.containers.navigation.navBar;whiteSpace=wrap;html=1;" vertex="1" parent="fAaPQEQrYyolMn0Xslb7-17">
          <mxGeometry x="260" y="200" width="400" height="40" as="geometry"/>
        </mxCell>
        <mxCell id="CL9a7TLkl-QwYfxJ-5D6-8" value="recordPerformance(exercise: Exercise): void" style="shape=mxgraph.mockup.containers.navigation.navBar;whiteSpace=wrap;html=1;" vertex="1" parent="fAaPQEQrYyolMn0Xslb7-17">
          <mxGeometry x="260" y="240" width="400" height="40" as="geometry"/>
        </mxCell>
        <mxCell id="CL9a7TLkl-QwYfxJ-5D6-10" value="" style="group" vertex="1" connectable="0">
          <mxGeometry x="140" y="460" width="440" height="360" as="geometry"/>
        </mxCell>
        <mxCell id="CL9a7TLkl-QwYfxJ-5D6-12" value="Exercise" style="rounded=0;whiteSpace=wrap;html=1;" vertex="1" parent="1">
          <mxGeometry x="160" y="480" width="400" height="60" as="geometry"/>
        </mxCell>
        <mxCell id="CL9a7TLkl-QwYfxJ-5D6-13" value="name: String" style="shape=mxgraph.mockup.forms.inputArea;whiteSpace=wrap;html=1;" vertex="1" parent="CL9a7TLkl-QwYfxJ-5D6-10">
          <mxGeometry x="160" y="540" width="400" height="40" as="geometry"/>
        </mxCell>
        <mxCell id="CL9a7TLkl-QwYfxJ-5D6-14" value="repetitions: int" style="shape=mxgraph.mockup.forms.inputArea;whiteSpace=wrap;html=1;" vertex="1" parent="CL9a7TLkl-QwYfxJ-5D6-10">
          <mxGeometry x="160" y="580" width="400" height="40" as="geometry"/>
        </mxCell>
        <mxCell id="CL9a7TLkl-QwYfxJ-5D6-15" value="distance: int" style="shape=mxgraph.mockup.forms.inputArea;whiteSpace=wrap;html=1;" vertex="1" parent="CL9a7TLkl-QwYfxJ-5D6-10">
          <mxGeometry x="160" y="620" width="400" height="40" as="geometry"/>
        </mxCell>
        <mxCell id="CL9a7TLkl-QwYfxJ-5D6-16" value="goalArea: int" style="shape=mxgraph.mockup.forms.inputArea;whiteSpace=wrap;html=1;" vertex="1" parent="CL9a7TLkl-QwYfxJ-5D6-10">
          <mxGeometry x="160" y="660" width="400" height="40" as="geometry"/>
        </mxCell>
        <mxCell id="CL9a7TLkl-QwYfxJ-5D6-17" value="imagePath: String" style="shape=mxgraph.mockup.forms.inputArea;whiteSpace=wrap;html=1;" vertex="1" parent="CL9a7TLkl-QwYfxJ-5D6-10">
          <mxGeometry x="160" y="700" width="400" height="40" as="geometry"/>
        </mxCell>
        <mxCell id="CL9a7TLkl-QwYfxJ-5D6-18" value="markedPosition: int" style="shape=mxgraph.mockup.forms.inputArea;whiteSpace=wrap;html=1;" vertex="1" parent="CL9a7TLkl-QwYfxJ-5D6-10">
          <mxGeometry x="160" y="740" width="400" height="40" as="geometry"/>
        </mxCell>
        <mxCell id="CL9a7TLkl-QwYfxJ-5D6-19" value="outcome: String" style="shape=mxgraph.mockup.forms.inputArea;whiteSpace=wrap;html=1;" vertex="1" parent="CL9a7TLkl-QwYfxJ-5D6-10">
          <mxGeometry x="160" y="780" width="400" height="40" as="geometry"/>
        </mxCell>
        <mxCell id="CL9a7TLkl-QwYfxJ-5D6-20" value="Exercise(name: String, repetitions: int, distance: int, goalArea: int, imagePath: String)" style="shape=mxgraph.mockup.containers.informationAndMessaging.alert;whiteSpace=wrap;html=1;" vertex="1" parent="CL9a7TLkl-QwYfxJ-5D6-10">
          <mxGeometry x="160" y="820" width="400" height="40" as="geometry"/>
        </mxCell>
        <mxCell id="CL9a7TLkl-QwYfxJ-5D6-21" value="toJson(): Map&lt;String, dynamic&gt;" style="shape=mxgraph.mockup.containers.informationAndMessaging.alert;whiteSpace=wrap;html=1;" vertex="1" parent="CL9a7TLkl-QwYfxJ-5D6-10">
          <mxGeometry x="160" y="860" width="400" height="40" as="geometry"/>
        </mxCell>
        <mxCell id="CL9a7TLkl-QwYfxJ-5D6-22" value="fromJson(json: Map&lt;String, dynamic&gt;): Exercise" style="shape=mxgraph.mockup.containers.informationAndMessaging.alert;whiteSpace=wrap;html=1;" vertex="1" parent="CL9a7TLkl-QwYfxJ-5D6-10">
          <mxGeometry x="160" y="900" width="400" height="40" as="geometry"/>
        </mxCell>
        <mxCell id="CL9a7TLkl-QwYfxJ-5D6-11" value="" style="group" vertex="1" connectable="0">
          <mxGeometry x="560" y="460" width="440" height="360" as="geometry"/>
        </mxCell>
        <mxCell id="CL9a7TLkl-QwYfxJ-5D6-23" value="GolfAreaImage" style="rounded=0;whiteSpace=wrap;html=1;" vertex="1" parent="1">
          <mxGeometry x="580" y="480" width="400" height="60" as="geometry"/>
        </mxCell>
        <mxCell id="CL9a7TLkl-QwYfxJ-5D6-24" value="imagePath: String" style="shape=mxgraph.mockup.forms.inputArea;whiteSpace=wrap;html=1;" vertex="1" parent="CL9a7TLkl-QwYfxJ-5D6-11">
          <mxGeometry x="580" y="540" width="400" height="40" as="geometry"/>
        </mxCell>
        <mxCell id="CL9a7TLkl-QwYfxJ-5D6-25" value="goalArea: int" style="shape=mxgraph.mockup.forms.inputArea;whiteSpace=wrap;html=1;" vertex="1" parent="CL9a7TLkl-QwYfxJ-5D6-11">
          <mxGeometry x="580" y="580" width="400" height="40" as="geometry"/>
        </mxCell>
        <mxCell id="CL9a7TLkl-QwYfxJ-5D6-26" value="GolfAreaImage(imagePath: String, goalArea: int)" style="shape=mxgraph.mockup.containers.informationAndMessaging.alert;whiteSpace=wrap;html=1;" vertex="1" parent="CL9a7TLkl-QwYfxJ-5D6-11">
          <mxGeometry x="580" y="620" width="400" height="40" as="geometry"/>
        </mxCell>
        <mxCell id="CL9a7TLkl-QwYfxJ-5D6-7" edge="1" style="edgeStyle=orthogonalEdgeStyle;rounded=0;orthogonalLoop=1;jettySize=auto;html=1;" parent="fAaPQEQrYyolMn0Xslb7-17" source="CL9a7TLkl-QwYfxJ-5D6-4" target="CL9a7TLkl-QwYfxJ-5D6-12">
          <mxGeometry relative="1" as="geometry"/>
        </mxCell>
        <mxCell id="CL9a7TLkl-QwYfxJ-5D6-9" edge="1" style="edgeStyle=orthogonalEdgeStyle;rounded=0;orthogonalLoop=1;jettySize=auto;html=1;" parent="fAaPQEQrYyolMn0Xslb7-17" source="CL9a7TLkl-QwYfxJ-5D6-6" target="CL9a7TLkl-QwYfxJ-5D6-12">
          <mxGeometry relative="1" as="geometry"/>
        </mxCell>
        <mxCell id="CL9a7TLkl-QwYfxJ-5D6-27" edge="1" style="edgeStyle=orthogonalEdgeStyle;rounded=0;orthogonalLoop=1;jettySize=auto;html=1;" parent="fAaPQEQrYyolMn0Xslb7-17" source="CL9a7TLkl-QwYfxJ-5D6-8" target="CL9a7TLkl-QwYfxJ-5D6-12">
          <mxGeometry relative="1" as="geometry"/>
        </mxCell>
      </root>
    </mxGraphModel>
  </sheet>
</diagram>
